<svg xmlns="http://www.w3.org/2000/svg" width="228" height="62" viewBox="0 0 228 62">
  <g fill="#000000" fill-rule="evenodd">
    <g transform="translate(82 12)">
      <path d="M.196178344 31L.196178344 12.28 4.31082803 12.28 4.31082803 13.384C4.31082803 13.816 4.26242038 14.344 4.21401274 14.824 5.47261146 12.952 7.36050955 11.848 9.63566879 11.848 12.2980892 11.848 14.1375796 13.096 15.0573248 15.16 16.3159236 13.144 18.3974522 11.848 21.0598726 11.848 24.7388535 11.848 27.3528662 14.248 27.3528662 18.856L27.3528662 31 23.2382166 31 23.2382166 19.048C23.2382166 16.792 21.8828025 15.256 19.7528662 15.256 17.6229299 15.256 15.8318471 16.984 15.8318471 19.912L15.8318471 31 11.7171975 31 11.7171975 19C11.7171975 16.792 10.3617834 15.4 8.32866242 15.4 6.24713376 15.4 4.45605096 16.984 4.35923567 19.768L4.35923567 31.048.196178344 31.048.196178344 31zM48.8942675 31C46.4738854 31 45.2636943 29.656 44.6828025 27.688 43.4726115 29.512 41.1490446 31.384 37.4216561 31.384 33.1617834 31.384 30.9834395 28.696 30.9834395 25.864 30.9834395 22.504 33.7426752 19.672 39.4547771 19.672 41.4878981 19.672 43.2789809 20.056 44.2471338 20.248L44.2471338 19.288C44.2471338 16.936 42.5528662 15.352 39.9872611 15.352 38.2929936 15.352 36.6471338 16.168 35.7273885 17.56L32.7261146 15.4C32.7261146 15.4 34.9044586 11.704 40.1808917 11.704 45.2636943 11.704 48.3617834 14.776 48.3617834 19.24L48.3617834 26.104C48.3617834 26.776 48.7974522 27.208 49.5235669 27.208L50.1044586 27.208 50.1044586 31 48.8942675 31zM44.2471338 23.08C43.3273885 22.888 41.6815287 22.6 40.1808917 22.6 37.2280255 22.6 35.2917197 23.848 35.2917197 25.672 35.2917197 26.968 36.3082803 28.072 38.3898089 28.072 41.7783439 28.024 43.811465 25.528 44.2471338 23.08zM71.2101911 31L67.0471338 31 67.0471338 20.344C67.0471338 17.032 65.110828 15.304 62.6904459 15.304 60.0280255 15.304 57.9464968 17.32 57.8980892 20.2L57.8980892 31.048 53.7834395 31.048 53.7834395 12.328 57.8980892 12.328 57.8980892 13.576C57.8980892 14.008 57.8496815 14.584 57.8012739 15.112 59.1082803 13.24 61.2382166 11.848 63.9006369 11.848 68.2089172 11.848 71.2101911 14.824 71.2101911 20.2L71.2101911 31 71.2101911 31zM77.9872611 4.024C79.633121 4.024 80.988535 5.368 80.988535 6.952 80.988535 8.584 79.633121 9.928 77.9872611 9.928 76.3898089 9.928 75.0343949 8.584 75.0343949 6.952 75.0343949 5.368 76.3898089 4.024 77.9872611 4.024zM75.8573248 31L75.8573248 12.28 80.1171975 12.28 80.1171975 31 75.8573248 31zM91.0573248 15.928L91.0573248 31 86.7974522 31 86.7974522 15.928 83.8929936 15.928 83.8929936 12.28 86.7974522 12.28 86.7974522 7.72C86.7974522 3.448 89.6535032.76 93.3808917.76 95.2203822.76 96.6242038 1.336 97.6407643 2.296L95.7044586 5.416C95.1719745 4.792 94.4458599 4.504 93.6713376 4.504 92.0738854 4.504 91.0089172 5.656 91.0089172 7.864L91.0089172 12.28 95.3171975 12.28 95.3171975 15.928 91.0573248 15.928zM97.2050955 21.592C97.2050955 16.12 101.464968 11.848 106.935032 11.848 112.356688 11.848 116.664968 16.12 116.664968 21.592 116.664968 27.112 112.356688 31.384 106.935032 31.384 101.464968 31.384 97.2050955 27.112 97.2050955 21.592zM112.501911 21.592C112.501911 18.04 110.275159 15.496 106.886624 15.496 103.498089 15.496 101.22293 18.136 101.22293 21.592 101.22293 25.144 103.594904 27.736 106.886624 27.736 110.275159 27.736 112.501911 25.192 112.501911 21.592z"/>
      <polygon points="120.005 31 120.005 1.24 124.265 1.24 124.265 31"/>
      <path d="M141.88535,31 C141.88535,29.752 141.933758,28.84 141.982166,28.264 C140.529936,30.232 138.4,31.384 135.979618,31.384 C130.945223,31.384 127.605096,27.16 127.605096,21.544 C127.605096,15.976 130.993631,11.848 136.028025,11.848 C138.351592,11.848 140.433121,12.76 141.88535,14.584 C141.836943,14.344 141.788535,14.104 141.788535,13.864 L141.788535,1.24 L145.903185,1.24 L145.903185,31 L141.88535,31 Z M141.788535,21.64 C141.788535,17.992 139.900637,15.544 136.850955,15.544 C133.849682,15.544 131.719745,18.04 131.719745,21.592 C131.719745,25.144 133.898089,27.784 136.850955,27.784 C139.900637,27.784 141.788535,25.144 141.788535,21.64 Z"/>
    </g>
    <path fill-rule="nonzero" d="M31.5356016,13.0077507 C31.2480915,12.8999007 30.9642604,12.8018439 30.6590652,12.7082805 C28.8279322,12.146912 26.991309,11.9683128 25.1824545,12.4222757 C24.8427197,12.5075379 24.5097694,12.6149781 24.1845735,12.7455311 C20.6881168,14.1055142 18.6957805,17.548682 17.2133436,23.0350723 C16.8257498,24.4695286 15.7778203,29.125614 15.8458971,28.8424548 C15.4564974,30.462128 15.1189726,31.3701341 14.9781987,31.4974605 L17.3412901,34.0836595 C18.2288897,33.2808488 18.6875832,32.0468756 19.262503,29.6555486 C19.2097548,29.8749499 20.2411887,25.2921564 20.6058809,23.9424574 C21.8192924,19.4517102 23.337663,16.827653 25.4814445,15.9937395 C25.6742252,15.9164563 25.8550609,15.8581021 26.0416845,15.8112658 C27.1251183,15.5393596 28.353667,15.6588276 29.624591,16.0484535 C29.8551297,16.1191295 30.0722183,16.1941284 30.2962553,16.2781685 C30.3910511,16.3137281 30.7020525,16.4348532 30.7656938,16.4578779 C31.4392098,16.6692099 47.059285,22.6914582 57.978398,26.9290556 L59.255027,23.6728644 C48.0545292,19.3260645 33.3313474,13.6489369 31.9652721,13.172808 C31.941924,13.1641091 31.6652379,13.0563795 31.5356016,13.0077507 Z"/>
    <path fill-rule="nonzero" d="M60.12569,24.0425117 C60.0330053,24.0117737 59.4040142,23.7470136 59.1832732,23.6646561 L57.9497808,26.9372639 C58.0502273,26.97474 58.7633409,27.2749097 59.0147857,27.358299 L60.12569,24.0425117 Z"/>
    <path fill-rule="nonzero" d="M53.6636481,27.8800026 L52.0925921,27.098464 L53.5090376,28.1319154 C53.5360432,28.0952766 53.5634885,28.0592019 53.5914301,28.023705 C53.6039853,27.998722 53.6226555,27.9615713 53.6636481,27.8800026 Z M47.6479828,34.9121075 L47.4473972,36.1593987 C47.0517453,38.4715339 46.5757997,40.2416283 45.9666686,41.626857 C45.2093656,43.4673012 44.2655547,44.6746095 43.4030988,45.1208089 C43.1089551,45.2800448 42.797872,45.3495251 42.5526515,45.3291939 C41.3494755,45.2923888 39.9020996,44.1756346 38.4216547,41.8435014 C36.824406,39.3933467 35.7294041,38.1102276 34.3103447,37.3454741 C31.3246026,35.7766315 28.2138508,36.7025325 26.0235445,39.4912182 C24.0578171,41.9939713 22.9347925,45.824259 22.9347925,50.1165013 C22.9347925,53.0524105 23.4711371,56.4409022 24.3992958,59.9038204 L27.7936674,59.0032516 C26.9383091,55.8119482 26.4477804,52.71291 26.4477804,50.1165013 C26.4477804,43.0957721 29.7441659,38.8988326 32.6535184,40.4274294 C33.3692929,40.8132823 34.1892846,41.7741454 35.4629282,43.7277072 C37.4804792,46.906178 39.8230745,48.7237335 42.3099613,48.816062 C43.2411358,48.8829523 44.2158612,48.6606226 45.054563,48.2054722 C46.7268244,47.3406997 48.1728652,45.4909466 49.201611,42.989006 C49.9252377,41.3446675 50.4709239,39.3152002 50.9134196,36.7287403 L51.1170064,35.463332 C51.6245517,32.2958095 52.4424241,29.8430287 53.4724119,28.2390614 L53.563277,28.0797252 C53.925431,27.5993922 54.3303589,27.2576423 54.9030992,27.0219528 C55.8897165,26.615948 57.1834424,26.6399323 58.9237629,27.3253106 L60.2167127,24.0755001 C57.6571567,23.067488 55.4221214,23.0260529 53.5604024,23.7921725 C52.2530974,24.3301442 51.3730081,25.1195731 50.6761466,26.0650126 L50.5881118,26.1844505 L50.5215362,26.3169254 C50.4913125,26.3770658 50.4732234,26.4130602 50.460773,26.4378346 C49.1649894,28.4913084 48.2178266,31.3557863 47.6479828,34.9121075 Z"/>
    <polygon fill-rule="nonzero" points="33.133 36.914 2.821 24.631 1.495 27.868 31.807 40.151"/>
    <path fill-rule="nonzero" d="M31.8697758,40.1749446 L32.4218167,40.3746673 L33.8076143,37.1692322 C33.4982883,37.0153547 33.2321483,36.9207874 32.8960577,36.8371915 L31.8697758,40.1749446 Z M33.070315,36.8902287 L32.4700454,38.5325867 L32.044033,40.2279818 C32.1428839,40.252569 32.1694928,40.262024 32.2365584,40.2953864 L33.0220863,38.7323093 L33.622356,37.0899514 L33.070315,36.8902287 Z"/>
    <path fill-rule="nonzero" d="M31.0146647,61.6504853 C48.1158743,61.6504853 61.9791438,47.8576225 61.9791438,30.843264 C61.9791438,13.8289055 48.1158743,0.0360426667 31.0146647,0.0360426667 C13.9134551,0.0360426667 0.0501855416,13.8289055 0.0501855416,30.843264 C0.0501855416,47.8576225 13.9134551,61.6504853 31.0146647,61.6504853 Z M31.0146647,58.1553387 C15.8536247,58.1553387 3.56317345,45.9273063 3.56317345,30.843264 C3.56317345,15.7592217 15.8536247,3.53118933 31.0146647,3.53118933 C46.1757046,3.53118933 58.4661559,15.7592217 58.4661559,30.843264 C58.4661559,45.9273063 46.1757046,58.1553387 31.0146647,58.1553387 Z"/>
  </g>
</svg>